<svg width="34" height="34" viewBox="0 0 34 34" fill="none" xmlns="http://www.w3.org/2000/svg">
<circle cx="17" cy="17" r="17" fill="#3A5998"/>
<path d="M21.3247 9.00333L19.2498 9C16.9188 9 15.4124 10.5455 15.4124 12.9376V14.7531H13.3262C13.146 14.7531 13 14.8993 13 15.0795V17.71C13 17.8903 13.1461 18.0363 13.3262 18.0363H15.4124V24.6738C15.4124 24.854 15.5584 25 15.7387 25H18.4605C18.6408 25 18.7868 24.8539 18.7868 24.6738V18.0363H21.226C21.4062 18.0363 21.5522 17.8903 21.5522 17.71L21.5532 15.0795C21.5532 14.993 21.5188 14.9101 21.4577 14.8488C21.3966 14.7876 21.3133 14.7531 21.2268 14.7531H18.7868V13.2141C18.7868 12.4744 18.963 12.0989 19.9266 12.0989L21.3243 12.0984C21.5044 12.0984 21.6504 11.9522 21.6504 11.7721V9.32958C21.6504 9.14964 21.5046 9.00366 21.3247 9.00333Z" fill="white"/>
</svg>
